<svg width="34" height="34" viewBox="0 0 34 34" fill="none" xmlns="http://www.w3.org/2000/svg">
<circle cx="17" cy="17" r="16.5" fill="#EAF5EB" stroke="#079911"/>
<path d="M22 7H12C9.23858 7 7 9.23858 7 12V22C7 24.7614 9.23858 27 12 27H22C24.7614 27 27 24.7614 27 22V12C27 9.23858 24.7614 7 22 7Z" stroke="#079911" stroke-width="2" stroke-linecap="round" stroke-linejoin="round"/>
<path d="M21 16.3698C21.1234 17.2021 20.9813 18.052 20.5938 18.7988C20.2063 19.5456 19.5932 20.1512 18.8416 20.5295C18.0901 20.9077 17.2385 21.0394 16.4078 20.9057C15.5771 20.7721 14.8098 20.3799 14.2149 19.785C13.6199 19.1901 13.2277 18.4227 13.0941 17.592C12.9604 16.7614 13.0921 15.9097 13.4703 15.1582C13.8486 14.4067 14.4542 13.7936 15.201 13.4061C15.9478 13.0186 16.7978 12.8764 17.63 12.9998C18.4789 13.1257 19.2649 13.5213 19.8717 14.1281C20.4785 14.735 20.8741 15.5209 21 16.3698Z" stroke="#079911" stroke-width="2" stroke-linecap="round" stroke-linejoin="round"/>
<path d="M22.5 11.5H22.51" stroke="#079911" stroke-width="2" stroke-linecap="round" stroke-linejoin="round"/>
</svg>
