<svg width="120" height="29" viewBox="0 0 120 29" fill="none" xmlns="http://www.w3.org/2000/svg">
<path d="M16.848 23L16.8 14.096L12.48 21.344H10.368L6.072 14.336V23H1.68V6.2H5.592L11.496 15.896L17.256 6.2H21.168L21.216 23H16.848ZM38.0664 19.328V23H24.5784V6.2H37.7544V9.872H29.2824V12.704H36.7464V16.256H29.2824V19.328H38.0664ZM40.7034 6.2H45.4554V19.232H53.4714V23H40.7034V6.2ZM66.7954 19.736H59.6914L58.3714 23H53.5234L60.9394 6.2H65.6194L73.0594 23H68.1154L66.7954 19.736ZM65.4034 16.232L63.2434 10.856L61.0834 16.232H65.4034ZM74.4066 6.2H82.3506C84.1906 6.2 85.8226 6.544 87.2466 7.232C88.6706 7.92 89.7746 8.896 90.5586 10.16C91.3426 11.424 91.7346 12.904 91.7346 14.6C91.7346 16.296 91.3426 17.776 90.5586 19.04C89.7746 20.304 88.6706 21.28 87.2466 21.968C85.8226 22.656 84.1906 23 82.3506 23H74.4066V6.2ZM82.1586 19.208C83.5986 19.208 84.7506 18.8 85.6146 17.984C86.4946 17.168 86.9346 16.04 86.9346 14.6C86.9346 13.16 86.4946 12.032 85.6146 11.216C84.7506 10.4 83.5986 9.992 82.1586 9.992H79.1586V19.208H82.1586ZM105.256 19.736H98.1523L96.8323 23H91.9843L99.4003 6.2H104.08L111.52 23H106.576L105.256 19.736ZM103.864 16.232L101.704 10.856L99.5443 16.232H103.864Z" fill="black"/>
<circle cx="117" cy="20" r="3" fill="#0EB019"/>
</svg>
