<svg width="698" height="530" viewBox="0 0 698 530" fill="none" xmlns="http://www.w3.org/2000/svg">
<circle cx="342" cy="246" r="246" fill="#EAF5EB"/>
<path fill-rule="evenodd" clip-rule="evenodd" d="M391.947 231.511C398.15 236.064 397.162 245.022 395.295 251.53C392.545 261.114 387.068 269.985 380.82 277.632C369.736 291.198 350.919 306.431 333.575 294.521C318.128 283.914 308.385 262.512 305.022 244.484C303.983 238.913 302.598 230.612 307.482 226.424C314.702 220.233 327.438 221.359 336.154 222.156C341.894 222.681 347.433 224.462 353.105 223.626C366.285 221.681 380.954 223.443 391.947 231.511Z" fill="#0EB019"/>
<path fill-rule="evenodd" clip-rule="evenodd" d="M124.725 302.502C137.291 318.641 158.655 321.191 177.629 321.032C189.023 320.937 200.439 320.068 211.609 317.718C217.631 316.45 223.613 314.771 229.431 312.754C233.275 311.421 238.997 310.755 240.632 306.586C244.947 295.585 241.772 281.789 239.996 270.624C239.092 264.944 238.413 259.231 237.535 253.547C236.972 249.911 236.703 245.887 235.198 242.485C233.435 238.499 231.209 239.295 227.481 240.396C222.345 241.914 217.071 242.545 211.791 243.361C198.903 245.354 187.659 249.371 175.947 255.066C164.366 260.696 153.132 266.254 142.802 274.083C137.568 278.05 133.058 282.357 128.857 287.413C125.611 291.32 120.767 297.418 124.725 302.502ZM179.654 374.182C179.755 375.92 199.449 370.674 202.041 370.086C219.046 366.224 236.387 361.827 252.441 354.85C267.425 348.338 280.628 340.887 292.42 329.318C297.916 323.925 302.86 318.246 307.59 312.197C309.961 309.166 313.2 309.518 315.844 306.953C318.222 304.645 320.046 302.843 319.303 299.392C313.36 300.977 302.387 310.942 296.227 305.91C292.715 303.042 297.585 300.046 299.834 298.384C304.06 295.259 307.674 291.403 311.034 287.356C305.265 288.488 299.896 290.676 294.875 293.72C292.645 295.072 285 299.977 283.22 295.302C282.125 292.423 287.309 288.806 288.925 287.214C292.894 283.304 297.178 278.74 299.285 273.484C294.076 272.26 289.165 276.336 285.617 279.657C281.679 283.343 276.852 287.212 273.549 291.459C271.846 293.65 271.475 296.237 270.145 298.6C268.647 301.259 266.252 303.537 263.962 305.505C259.552 309.295 254.393 312.086 249.098 314.394C236.998 319.668 224.029 323.401 211.132 326.019C204.804 327.304 198.633 327.896 192.211 328.114C187.219 328.283 185.011 329.794 183.105 334.45C177.948 347.048 178.884 360.908 179.654 374.182ZM327.762 278.189C330.648 280.923 334.398 282.637 337.414 285.266C340.068 287.578 343.13 290.045 346.092 291.915C349.255 293.911 351.617 292.512 354.465 290.706C357.808 288.587 361.65 287.728 365.093 285.832C376.997 279.273 391.56 263.201 389.338 248.444C388.396 242.189 385.202 236.035 379.402 233.197C374.134 230.62 366.477 229.19 360.842 231.344C357.663 232.559 355.388 235.242 353.352 237.88C350.977 240.954 350.067 240.469 347.649 237.504C343.32 232.199 336.184 227.545 329.128 227.657C325.622 227.714 322.138 228.462 318.98 229.935C318.552 230.135 318.314 230.74 317.884 230.945C317.356 231.196 316.49 230.673 316.123 230.908C315.198 231.501 314.275 233.353 313.741 234.292C311.601 238.062 307.747 245.456 311.631 248.631C311.633 248.632 311.458 252.926 311.511 253.415C311.785 255.977 312.66 258.091 313.787 260.434C317.17 267.471 322.166 272.889 327.762 278.189ZM322.008 337.731C324.742 338.591 327.686 329.918 325.064 328.534C322.564 327.213 319.533 336.953 322.008 337.731ZM364.944 327.361C365.89 330.637 366.29 334.355 368.605 337.022C370.725 334.475 370.934 329.776 368.878 327.159C367.705 325.665 363.908 323.781 364.944 327.361ZM277.465 269.958C277.48 270.041 274.175 271.641 275.788 273.391C277.991 275.78 277.688 271.129 277.465 269.958ZM263.808 243.256C263.846 246.569 270.773 245.769 270.724 242.437C270.663 238.337 263.768 239.745 263.808 243.256ZM272.077 215.57C271.391 212.537 259.343 208.318 259.671 213.604C259.835 216.254 273.531 222.018 272.077 215.57ZM395.593 318.426C396.944 320.07 398.862 320.718 400.481 321.98C402.179 323.302 403.392 325.018 404.875 326.57C408.947 330.832 413.849 334.335 418.241 338.25C426.318 345.448 434.054 353.185 443.008 359.29C459.01 370.197 477.566 376.163 495.987 381.386C497.513 381.819 501.909 383.566 503.419 382.265C505.047 380.862 504.219 375.924 504.144 374.058C503.839 366.404 502.958 358.66 503.053 351.017C503.092 347.878 504 343.416 502.382 340.544C500.576 337.336 495.533 336.397 492.413 335.19C482.931 331.521 473.798 325.332 465.422 319.6C455.125 312.553 444.727 305.389 434.131 298.81C423.75 292.365 412.299 288.05 400.719 284.369C400.183 285.51 405.708 289.183 406.34 289.698C409.369 292.167 412.665 294.726 414.914 297.986C416.506 300.293 418.139 305.514 413.743 305.648C411.612 305.713 408.461 303.626 406.529 302.951C403.337 301.836 400.049 301.054 396.71 300.544C399.58 303.744 409.309 309.491 407.539 314.812C405.821 319.975 395.888 313.95 392.469 313.95C393.029 315.75 394.438 317.02 395.593 318.426ZM512.948 332.837C519.309 335.102 525.83 336.39 532.395 337.852C538.653 339.246 544.438 340.296 550.848 339.48C559.698 338.354 569.492 334.643 570.614 324.461C571.944 312.398 563.529 301.313 556.304 292.659C547.51 282.129 537.635 272.716 526.934 264.192C516.244 255.676 504.706 248.169 492.618 241.831C483.423 237.009 473.037 234.082 463.313 230.463C461.463 229.775 456.347 227.356 454.616 229.361C453.218 230.982 455.121 233.683 455.759 235.188C457.002 238.122 457.173 241.076 457.494 244.226C458.928 258.296 460.653 272.362 461.447 286.492C461.669 290.431 462.058 294.55 461.831 298.491C461.706 300.673 460.584 303.453 461.331 305.585C462.767 309.681 469.344 312.393 472.83 314.222C479.07 317.498 485.678 319.943 491.982 323.076C498.906 326.517 505.647 330.237 512.948 332.837ZM424.721 241.415C422.975 241.173 420.359 240.691 418.803 241.837C416.773 243.33 417.305 245.408 419.18 246.491C420.661 247.348 424.126 247.582 425.589 246.805C428.081 245.482 427.659 241.825 424.721 241.415ZM415.051 273.995C416.462 276.375 421.619 277.935 421.17 273.495C420.784 269.693 412.452 269.614 415.051 273.995ZM416.965 206.966C414.697 207.856 410.58 208.617 409.907 211.571C409.281 214.321 411.855 214.139 413.712 213.382C415.24 212.761 422.044 206.919 416.965 206.966ZM61.5614 311.855C62.8862 306.635 61.8773 300.856 62.6083 295.51C63.3176 290.328 64.5939 285.565 66.4252 280.681C70.4803 269.869 75.126 260.135 81.699 250.646C94.0785 232.776 108.441 217.035 125.785 203.982C142.907 191.097 161.866 180.625 181.951 173.285C203.248 165.502 224.686 162.793 247.146 161.301C253.853 160.856 260.554 160.328 267.223 159.47C272.097 158.843 278.207 158.071 283.026 159.582C286.054 160.533 287.746 163.206 284.447 164.96C282.109 166.204 279.047 166.352 276.465 166.683C279.584 176.717 284.661 186.786 292.706 193.695C300.559 200.441 311.068 202.754 320.98 204.465C326.355 205.392 332.373 206.109 337.832 205.709C341.282 205.457 343.975 203.839 345.367 207.438C346.334 209.938 346.791 212.681 348.065 208.906C349.571 204.443 350.31 204.472 354.997 203.204C364.582 200.612 375.569 198.247 383.931 192.641C392.606 186.824 395.623 177.415 400.466 168.654C401.664 166.488 405.276 162.105 403.43 159.624C401.742 157.355 396.252 157.581 393.738 157.344C391.086 157.095 388.417 157.084 385.755 156.98C384.213 156.919 381.111 157.559 381.731 155.227C382.668 151.713 392.696 152.163 395.186 152.106C399.817 152.001 404.512 152.109 409.12 152.625C431.967 155.183 455.019 159.913 477.127 166.221C520.021 178.457 561.565 201.006 592.869 233.491C622.917 264.673 632.437 316.563 613.964 356.377C604.364 377.069 583.531 385.569 563.335 392.434C552.682 396.055 541.402 398.887 530.079 398.204C524.644 397.876 519.488 396.394 514.188 395.278C511.877 394.791 509.247 394.015 506.873 394.211C505.076 394.359 503.349 396.029 501.663 395.142C500.467 394.512 499.947 392.704 498.485 391.933C496.729 391.01 494.601 390.676 492.705 390.21C487.435 388.913 482.332 386.812 477.181 385.089C471.854 383.306 466.827 381.011 461.716 378.69C459.135 377.518 453.163 372.753 451.481 376.237C450.715 377.827 451.041 380.893 450.855 382.561C450.527 385.477 450.143 388.387 449.723 391.291C448.797 397.685 447.689 404.051 446.553 410.41C444.503 421.884 441.861 432.867 437.444 443.66C433.917 452.278 430.821 462.045 424.272 468.901C421.414 471.893 417.513 473.24 413.412 472.3C408.748 471.23 406.426 466.94 403.595 463.472C397.365 455.841 387.081 449.993 377.583 447.888C365.953 445.311 354.625 449.081 343.524 452.285C331.782 455.675 319.828 458.905 308.302 462.979C297.563 466.777 285.966 472.385 274.318 471.897C264.161 471.472 254.674 463.102 247.348 456.723C239.991 450.316 230.792 440.934 220.213 441.689C214.96 442.064 210.173 444.629 205.056 445.672C199.439 446.817 193.462 446.98 187.75 447.407C180.659 447.936 164.796 446.065 162.173 437.428C161.783 436.147 161.781 433.509 163.452 432.996C164.989 432.525 165.775 434.345 167.231 434.262C170.194 434.093 172.509 428.862 174.137 426.837C180.706 418.663 189.717 412.566 197.088 405.181C205.412 396.843 212.518 386.741 218.79 376.777C215.954 376.031 212.895 377.27 210.151 377.859C206.816 378.574 203.567 379.438 200.281 380.354C196.66 381.363 192.987 382.057 189.311 382.827C186.569 383.4 182.929 383.573 180.454 384.965C178.293 386.182 177.087 387.488 174.404 387.84C171.676 388.198 168.876 387.896 166.135 387.878C158.723 387.827 151.326 387.688 143.948 386.894C117.879 384.09 90.2463 372.927 74.571 350.773C70.3074 344.746 66.8727 338.071 64.7021 330.987C63.0082 325.456 60.0872 317.662 61.5614 311.855Z" fill="#242424"/>
<path fill-rule="evenodd" clip-rule="evenodd" d="M306.064 56.5943C299.214 56.6924 292.792 58.7491 286.409 61.0872C280.795 63.1431 274.811 65.0451 270.272 69.1487C262.107 76.5303 259.981 88.7526 258.644 99.2095C256.978 112.258 262.524 123.206 267.192 135.011C271.557 146.052 279.57 154.996 289.094 161.812C294.083 165.382 299.598 167.537 305.367 169.426C311.228 171.346 316.904 173.916 323.174 173.906C332.697 173.892 344.888 169.313 348.944 159.815C350.791 155.491 348.992 154.715 345.297 157.065C339.936 160.475 334.768 164.155 328.503 165.667C316.354 168.602 301.802 164.056 291.148 158.057C280.499 152.061 273.349 143.053 268.571 131.836C263.75 120.52 261.877 109.369 263.737 97.17C265.312 86.8317 268.446 77.3885 277.648 71.7764C297.513 59.6629 324.277 60.6389 341.943 76.3814C344.366 78.5396 346.761 80.6396 349.257 82.7004C350.845 84.0101 352.714 85.5817 352.483 87.847C352.286 89.7867 348.2 97.2657 353.12 94.9685C357.108 93.1057 359.275 89.4644 364.105 89.0136C369.247 88.5334 375.38 92.5322 376.918 97.5651C378.385 102.367 375.769 108.937 371.671 111.692C369.134 113.398 366.342 113.134 363.46 113.065C362.03 113.031 358.049 112.561 357.103 114.091C355.428 116.798 361.336 119.644 363.242 120.243C367.881 121.7 373.364 119.985 376.031 115.792C378.742 111.53 380.598 106.597 380.972 101.519C381.329 96.6538 380.238 91.728 377.403 87.7333C374.387 83.4849 368.241 78.722 362.73 80.1978C360.339 80.8384 358.417 83.3401 356.07 83.8154C354.589 84.1149 355.212 84.3292 353.985 83.2174C353.205 82.5122 352.469 81.2106 351.75 80.3745C347.614 75.5674 343.525 70.4372 338.463 66.5897C329.387 59.6907 317.324 56.4323 306.064 56.5943ZM331.162 151.901C330.089 149.353 328.117 153.897 327.534 154.657C326.38 156.161 323.666 157.33 323.783 159.547C323.976 163.208 328.904 162.529 330.547 160.619C332.417 158.445 332.222 154.416 331.162 151.901ZM296.152 134.57C293.494 138.765 296.734 143.292 298.836 147.004C300.845 150.554 302.712 154.566 305.051 157.903C308.935 163.444 317.385 157.45 317.636 151.756C317.828 147.397 314.778 149.295 312.821 150.923C310.806 152.599 309.851 153.017 307.739 151.186C303.49 147.5 301.581 141.337 298.644 136.67C298.061 135.745 297.006 135.189 296.152 134.57ZM288.574 135.919C287.888 137.947 289.326 143.322 285.329 142.785C283.119 142.488 282.648 139.279 281.487 137.878C277.581 133.169 278.779 142.075 279.799 144.304C282.049 149.217 288.344 152.601 291.467 146.369C292.628 144.051 292.623 141.125 292.033 138.633C291.712 137.275 289.839 132.173 288.574 135.919ZM324.224 126.312C324.578 128.679 326.776 133.394 324.093 135.087C321.733 136.578 317.622 133.341 315.804 131.99C313.915 130.586 309.635 126.557 309.467 131.57C309.381 134.126 311.908 137.192 313.711 138.664C317.557 141.803 325.55 144.619 328.384 138.71C329.929 135.491 329.084 130.908 328.063 127.664C327.236 125.035 323.37 120.596 324.224 126.312ZM273.774 113.355C272.209 115.195 268.499 119.319 270.516 121.939C272.875 125.003 276.707 119.382 278.218 117.818C279.579 116.409 282.443 112.396 281.222 110.267C279.2 106.745 275.149 111.739 273.774 113.355ZM298.378 105.431C293.261 108.805 299.989 111.235 302.903 111.537C306.43 111.902 310.94 112.143 314.18 110.391C318.772 107.907 317.241 104.155 312.79 103.257C308.226 102.337 302.349 102.811 298.378 105.431ZM364.896 94.6874C361.133 95.4287 356.835 96.3934 355.554 100.546C354.231 104.839 356.132 106.263 359.975 105.297C363.531 104.403 368.842 103.503 370.853 99.986C373.255 95.7846 368.385 94.001 364.896 94.6874Z" fill="#242424"/>
<path fill-rule="evenodd" clip-rule="evenodd" d="M571.933 186.915C573.196 191.043 579.587 193.781 582.774 196.291C593.922 205.071 604.815 214.213 614.893 224.234C620.124 229.435 624.084 235.726 628.62 241.511C629.726 242.922 631.687 246.085 633.858 245.788C636.24 245.463 636.721 241.31 636.645 239.496C636.385 233.312 630.806 227.339 626.827 223.08C622.351 218.292 617.566 213.625 612.68 209.265C607.299 204.465 601.461 200.339 595.511 196.299C589.668 192.333 584.066 187.75 577.99 184.157C575.128 182.465 570.375 181.821 571.933 186.915ZM182.256 147.707C177.602 147.856 173.062 149.401 168.673 150.835C159.02 153.991 149.827 158.369 140.761 162.945C124.867 170.966 109.571 180.67 95.5507 191.704C92.6198 194.01 89.6151 195.878 86.4282 197.764C84.3884 198.972 81.4801 200.446 80.6943 202.908C78.6982 209.165 88.7734 202.885 90.2032 201.986L92.2144 200.723C122.045 182.005 151.842 163.819 185.585 153.085C187.383 152.513 187.942 150.889 186.999 149.28C185.976 147.536 183.984 147.652 182.256 147.707ZM573.291 160.804C573.506 162.71 575.638 163.143 577.076 163.755C582.44 166.036 587.939 167.982 593.289 170.301C603.219 174.605 612.338 180.852 622.702 184.118C625.071 184.866 625.42 182.446 624.786 180.799C624.08 178.961 621.958 177.67 620.424 176.607C615.999 173.538 610.979 171.331 606.065 169.199C601.192 167.084 596.176 165.484 591.18 163.71C586.537 162.062 581.148 158.994 576.162 158.768L575.944 158.757C574.357 158.676 573.039 158.567 573.291 160.804ZM173.786 131.858C178.53 130.507 174.048 127.466 171.229 127.68C168.084 127.918 165.044 129.422 162.061 130.329C152.942 133.101 144.489 136.132 135.969 140.435C134.699 141.078 129.101 144.123 132.804 145.472C135.37 146.406 141.363 142.397 143.566 141.436C153.247 137.209 163.65 134.744 173.786 131.858Z" fill="#242424"/>
<path fill-rule="evenodd" clip-rule="evenodd" d="M362.9 141.7C362.307 139.938 354.973 120.683 357.843 120.103C360.884 119.487 364.949 130.659 365.831 132.677C369.089 140.132 371.018 148.13 372.529 156.126C373.582 161.694 374.507 167.398 374.138 173.09C373.855 177.464 372.07 178.127 369.129 180.807C369.129 167.52 367.135 154.276 362.9 141.7Z" fill="#242424"/>
</svg>
