<svg width="34" height="34" viewBox="0 0 34 34" fill="none" xmlns="http://www.w3.org/2000/svg">
<circle cx="17" cy="17" r="16.5" fill="#EAF5EB" stroke="#079911"/>
<path d="M28 7.9998C27.0424 8.67528 25.9821 9.19191 24.86 9.5298C24.2577 8.83731 23.4573 8.34649 22.567 8.12373C21.6767 7.90096 20.7395 7.957 19.8821 8.28426C19.0247 8.61151 18.2884 9.1942 17.773 9.95352C17.2575 10.7128 16.9877 11.6121 17 12.5298V13.5298C15.2426 13.5754 13.5013 13.1856 11.931 12.3952C10.3607 11.6049 9.01032 10.4384 8 8.9998C8 8.9998 4 17.9998 13 21.9998C10.9405 23.3978 8.48716 24.0987 6 23.9998C15 28.9998 26 23.9998 26 12.4998C25.9991 12.2213 25.9723 11.9434 25.92 11.6698C26.9406 10.6633 27.6608 9.39251 28 7.9998V7.9998Z" stroke="#079911" stroke-width="2" stroke-linecap="round" stroke-linejoin="round"/>
</svg>
